<?xml version="1.0"?>
<svg xmlns="http://www.w3.org/2000/svg" xmlns:xlink="http://www.w3.org/1999/xlink" xmlns:svgjs="http://svgjs.com/svgjs" version="1.1" width="512" height="512" x="0" y="0" viewBox="0 0 512 512" style="enable-background:new 0 0 512 512" xml:space="preserve" class=""><g><g xmlns="http://www.w3.org/2000/svg"><circle cx="256" cy="113.5" r="23.5" fill="#333333" data-original="#000000" style=""/><path d="m271 227v-31.376c11.876-2.164 22.881-6.838 32.444-13.467l22.206 22.206 21.213-21.213-22.206-22.206c6.629-9.563 11.303-20.568 13.467-32.444h31.376v-30h-31.376c-2.164-11.876-6.838-22.881-13.467-32.444l22.206-22.206-21.213-21.213-22.206 22.206c-9.563-6.629-20.568-11.303-32.444-13.467v-31.376h-30v31.376c-11.876 2.164-22.881 6.838-32.444 13.467l-22.206-22.206-21.213 21.213 22.206 22.206c-6.629 9.563-11.303 20.568-13.467 32.444h-31.376v30h31.376c2.164 11.876 6.838 22.881 13.467 32.444l-22.206 22.206 21.213 21.213 22.206-22.206c9.563 6.629 20.568 11.303 32.444 13.467v31.376zm-15-60c-29.5 0-53.5-24-53.5-53.5s24-53.5 53.5-53.5 53.5 24 53.5 53.5-24 53.5-53.5 53.5z" fill="#333333" data-original="#000000" style=""/><path d="m483.785 117.082c-15.582 0-28.213 12.631-28.213 28.213v108.001c0 15.547-6.054 30.164-17.048 41.157l-53.545 53.545-21.213-21.213 53.545-53.545c10.997-10.997 10.997-28.891 0-39.888-10.999-10.998-28.892-10.997-39.889 0l-106.422 106.423v172.225h137.688v-67.751l103.311-135.97v-162.984c0-15.582-12.632-28.213-28.214-28.213z" fill="#333333" data-original="#000000" style=""/><path d="m94.689 233.352c-10.997 10.997-10.997 28.891 0 39.888l53.545 53.545-21.213 21.213-53.545-53.545c-10.994-10.993-17.048-25.61-17.048-41.157v-108.001c0-15.582-12.631-28.213-28.213-28.213-15.582 0-28.213 12.631-28.213 28.213v162.984l103.31 135.97v67.751h137.688v-172.225l-106.423-106.423c-10.996-10.997-28.89-10.998-39.888 0z" fill="#333333" data-original="#000000" style=""/></g></g></svg>
